<svg width="100" height="100" viewBox="0 0 100 100" fill="none" xmlns="http://www.w3.org/2000/svg">
<path d="M49.082 6.62105C47.7539 7.10933 46.6211 7.91011 45.3711 9.2187C44.082 10.6054 43.3203 11.7968 41.6992 15.039C40.0391 18.3789 38.9844 19.8437 37.4609 20.996C35.9961 22.0898 35.3906 22.4218 30.6055 24.6484C26.1328 26.7187 24.1602 27.871 22.5781 29.3164L21.3672 30.4296L20.8008 29.9609C16.4648 26.4843 9.60937 29.2382 7.20703 35.4296C5.99609 38.5546 4.51172 44.8828 3.80859 49.9023C2.79297 57.2656 2.91016 64.6679 4.10156 68.2812C5.01953 71.0351 6.99219 73.3984 9.33594 74.5507C10.625 75.1953 10.9375 75.2734 12.3047 75.2734C13.6719 75.2734 14.0039 75.1953 15.2734 74.5507L16.7188 73.8476L18.418 75.4882C21.2695 78.2421 24.7852 80.3515 28.6523 81.621C31.1523 82.4609 32.9492 82.7734 36.0352 82.9296C40.5469 83.1445 41.6992 83.5546 46.9141 86.8359C52.4023 90.2539 58.1055 92.7148 62.3828 93.457C64.668 93.8476 68.0664 93.8476 69.707 93.4375C72.4219 92.7539 74.4141 91.3671 75.3125 89.5312C75.7812 88.5742 75.8203 88.3007 75.7422 86.8554C75.6641 85.332 75.332 84.3554 74.2773 82.4023C74.2383 82.3437 75.1172 82.2265 76.2109 82.1679C81.582 81.8359 85.4492 79.8632 87.0312 76.6406C87.5195 75.6445 87.5977 75.2539 87.5977 73.8281C87.5977 72.4023 87.5195 72.0117 87.0312 71.0156C86.4062 69.746 84.9023 68.1445 83.3789 67.1093L82.3828 66.4453L82.9492 66.3476C83.2422 66.289 84.0234 66.1718 84.668 66.1132C86.582 65.8984 89.2969 65.1171 90.9375 64.3164C92.8516 63.3984 95 61.3671 95.7617 59.7656C96.875 57.4609 97.207 54.375 96.5625 52.3828C95.625 49.4921 92.3242 47.2461 87.0312 45.9179L84.9023 45.3711L85.7617 44.7656C86.25 44.4531 86.9727 43.8086 87.3828 43.3593C89.8242 40.6445 90.0391 35.7812 87.8711 32.3828C86.4844 30.2343 83.8281 28.496 80.918 27.8515C78.6914 27.3632 75.8203 27.4804 66.9336 28.4179C57.793 29.375 54.4336 29.6875 54.3359 29.6093C54.3164 29.5703 55 28.5937 55.8789 27.4218C60.1562 21.6796 61.1914 16.2304 58.9258 11.4257C58.0273 9.5312 56.3867 7.79292 54.7266 6.99214C53.6133 6.44527 53.1836 6.34761 51.7578 6.28902C50.5078 6.24995 49.8437 6.32808 49.082 6.62105ZM53.2812 10.1757C54.9023 10.9765 56.3281 13.3984 56.5625 15.8007C56.7187 17.5 56.1914 19.9609 55.2734 21.8359C54.8242 22.7343 53.5156 24.7265 52.3437 26.2695C51.1719 27.8125 49.9023 29.6484 49.5117 30.3711C48.5156 32.1289 47.6172 34.7656 46.8945 37.9296C46.1133 41.4453 45.5078 42.6171 43.4766 44.6289C40.9375 47.1484 38.6523 48.0468 34.6484 48.0468C32.7539 48.0468 32.4414 48.0859 32.0703 48.4375C31.1328 49.3164 31.3867 50.8007 32.5391 51.289C33.418 51.6601 36.5625 51.6406 38.4375 51.25C42.4023 50.4492 45.8203 48.1054 48.125 44.6484C49.1211 43.125 49.7461 41.5429 50.2148 39.2968C50.6836 36.9726 51.0547 35.5664 51.6016 34.2187L51.9922 33.2031H53.2031C54.7266 33.2031 59.043 32.7929 67.1875 31.8945C75.1367 31.0156 79.5312 30.8984 81.2891 31.5625C84.3359 32.7343 85.8203 34.7656 85.8203 37.8125C85.8008 41.2109 83.6914 42.7734 77.4023 44.0234C75.3711 44.4336 74.3164 44.5312 71.7383 44.5312C67.1875 44.5312 62.3633 45.0976 61.3281 45.7617C60.4687 46.289 60.3125 47.5586 60.9961 48.3593C61.5625 49.0234 62.0898 49.0429 64.6484 48.5351C66.25 48.2031 67.4023 48.1445 72.9492 48.1445C79.5508 48.1445 81.0742 48.2617 84.9219 49.0429C89.2578 49.9218 92.1484 51.3867 93.0859 53.164C93.457 53.8671 93.4375 55.7421 93.0469 57.0312C92.4414 59.0429 91.2695 60.2929 89.0039 61.3281C86.3867 62.5 83.5938 62.8906 77.8906 62.8906C73.9844 62.8906 73.75 62.871 71.7578 62.3046C67.793 61.1914 62.3828 60.332 57.7148 60.039C55.5664 59.9218 55.5469 59.9218 54.9219 60.4492C54.4336 60.8593 54.2969 61.1132 54.2969 61.6796C54.3164 63.0664 54.8828 63.3789 57.6172 63.5546C68.6914 64.2773 79.8047 67.7734 83.1836 71.6015C85.4102 74.1406 83.6914 76.9726 79.1797 78.2226C77.7148 78.6328 73.3398 78.8281 71.6797 78.5546C70.6445 78.3789 69.9805 78.0859 68.0664 76.9335C65.0977 75.1367 61.8164 73.5546 57.6562 71.9335C53.8867 70.4687 53.1055 70.3515 52.4219 71.1523C51.8555 71.8164 51.7969 72.832 52.3047 73.3984C52.4805 73.6328 54.082 74.3554 55.9961 75.0976C62.8125 77.6953 67.6562 80.3515 69.9023 82.7148C72.2461 85.1953 72.9102 87.4023 71.6797 88.6523C70.7031 89.6093 69.1602 90.0976 66.6602 90.1953C61.8164 90.371 55.8398 88.2617 48.8477 83.8867C43.1836 80.332 41.6602 79.7851 36.8555 79.4726C35.1562 79.375 33.1445 79.1601 32.3828 79.0039C26.1719 77.6953 20.0977 73.5351 17.832 69.0429C17.1484 67.7148 16.8359 66.5429 16.6211 64.6093C16.4258 62.8515 16.4648 62.1289 16.9141 59.2382C17.0312 58.496 16.9727 58.3593 16.4453 57.8125C16.0156 57.3828 15.6641 57.2265 15.1953 57.2265C13.9062 57.246 13.418 58.1054 13.1055 60.9765C12.8125 63.5351 13.1055 66.3476 13.8867 68.5546C14.668 70.7812 14.668 70.8984 13.8867 71.3671C11.875 72.5585 9.29687 71.1523 7.8125 68.0664C5.64453 63.5546 6.5625 49.414 9.6875 39.1015C10.5273 36.3476 11.1133 35.1757 12.2461 33.9648C14.375 31.6796 17.5391 31.3281 19.2188 33.1836C19.5312 33.5351 19.5508 33.6914 19.3555 34.4531C18.8477 36.4843 19.375 37.6953 20.7422 37.6953C21.7578 37.6953 22.207 37.2461 22.6562 35.7812C23.7305 32.1679 25.1367 31.0546 33.2031 27.3632C40.1953 24.1406 42.0898 22.3437 45.2344 15.9765C46.7578 12.8515 47.9297 11.289 49.4141 10.3906C50.7031 9.62886 51.9727 9.55074 53.2812 10.1757Z" fill="white"/>
</svg>
